<svg width="18" height="27" viewBox="0 0 18 27" fill="none" xmlns="http://www.w3.org/2000/svg">
<g clip-path="url(#clip0)">
<path d="M4.50093 27C6.98443 27 9.00003 24.984 9.00003 22.5V18H4.50093C2.01743 18 0.00183105 20.016 0.00183105 22.5C0.00183105 24.984 2.01743 27 4.50093 27Z" fill="white"/>
<path d="M0.00183105 4.5C0.00183105 2.016 2.01743 0 4.50093 0H9.00003V9H4.50093C2.01743 9 0.00183105 6.984 0.00183105 4.5Z" fill="white"/>
<path d="M0.00183105 13.5C0.00183105 11.016 2.01743 9 4.50093 9H9.00003V18H4.50093C2.01743 18 0.00183105 15.984 0.00183105 13.5Z" fill="white"/>
<path d="M9 0H13.4991C15.9826 0 17.9982 2.016 17.9982 4.5C17.9982 6.984 15.9826 9 13.4991 9H9V0Z" fill="white"/>
<path d="M17.9982 13.5C17.9982 15.984 15.9826 18 13.4991 18C11.0156 18 9 15.984 9 13.5C9 11.016 11.0156 9 13.4991 9C15.9826 9 17.9982 11.016 17.9982 13.5Z" fill="white"/>
</g>
<defs>
<clipPath id="clip0">
<rect width="18" height="27" fill="white"/>
</clipPath>
</defs>
</svg>
