<svg width="79" height="84" viewBox="0 0 79 84" fill="none" xmlns="http://www.w3.org/2000/svg">
<path d="M16.6548 11.6533C19.7149 10.6476 22.5363 9.00609 24.9209 6.84012C33.284 -0.756176 46.0494 -0.756178 54.4125 6.84011C56.7971 9.00609 59.6185 10.6476 62.6786 11.6533C73.3835 15.1713 79.731 26.3674 77.4135 37.4031C76.7482 40.571 76.7482 43.9277 77.4135 47.0956C79.731 58.1313 73.3835 69.3275 62.6786 72.8455C59.6185 73.8511 56.7971 75.4926 54.4125 77.6586C46.0494 85.2549 33.284 85.2549 24.9209 77.6586C22.5363 75.4926 19.7149 73.8511 16.6548 72.8455C5.94985 69.3275 -0.397622 58.1313 1.91989 47.0956C2.58514 43.9277 2.58514 40.571 1.91989 37.4031C-0.397622 26.3674 5.94985 15.1713 16.6548 11.6533Z" stroke="black"/>
</svg>
