<svg width="24" height="27" viewBox="0 0 24 27" fill="none" xmlns="http://www.w3.org/2000/svg">
<g clip-path="url(#clip0)">
<path opacity="0.75" fill-rule="evenodd" clip-rule="evenodd" d="M13.5245 26.9931C9.80091 26.9061 6.55584 25.6646 3.91037 23.0057C2.72745 21.8164 2.81024 20.236 3.99413 18.9704C5.11973 17.7669 7.07346 17.8088 8.04494 18.8907C10.3706 21.4809 14.5617 22.0556 17.677 20.0488C18.1463 19.7465 18.5612 19.358 18.9898 18.9956C20.2671 17.9155 22.2243 17.9135 23.1901 18.9982C24.3525 20.304 24.2671 21.9299 22.9115 23.2288C20.7972 25.2553 18.284 26.4833 15.3606 26.8507C15.0567 26.8886 14.7565 26.9639 14.4519 26.9877C14.1445 27.0118 13.8338 26.9931 13.5245 26.9931Z" fill="white"/>
<path opacity="0.75" fill-rule="evenodd" clip-rule="evenodd" d="M13.5245 0.00687695C9.80091 0.0939373 6.55588 1.33548 3.91037 3.99437C2.72745 5.18359 2.81024 6.76407 3.99413 8.02966C5.11973 9.23308 7.07351 9.1912 8.04499 8.10932C10.3706 5.51911 14.5617 4.94443 17.677 6.95125C18.1464 7.25351 18.5613 7.64207 18.9898 8.00439C20.2672 9.08448 22.2243 9.08655 23.1902 8.00181C24.3526 6.69603 24.2672 5.07016 22.9115 3.77118C20.7972 1.74475 18.284 0.516814 15.3606 0.149343C15.0567 0.111434 14.7565 0.0360802 14.4519 0.0123288C14.1445 -0.0117607 13.8338 0.00687695 13.5245 0.00687695Z" fill="white"/>
<path opacity="0.75" fill-rule="evenodd" clip-rule="evenodd" d="M0.00690456 13.4781C0.0943144 17.1868 1.34084 20.4188 4.01041 23.0538C5.2044 24.232 6.79123 24.1495 8.0619 22.9703C9.27015 21.8493 9.2281 19.9033 8.14188 18.9357C5.54127 16.6194 4.96428 12.445 6.97916 9.34214C7.28263 8.87468 7.67275 8.46144 8.03652 8.03463C9.12096 6.76237 9.12304 4.81306 8.03393 3.85109C6.72291 2.69331 5.09051 2.77838 3.78632 4.12862C1.75175 6.23447 0.518889 8.73767 0.149943 11.6493C0.111881 11.952 0.0362251 12.2511 0.0123783 12.5544C-0.0118079 12.8606 0.00690456 13.17 0.00690456 13.4781Z" fill="white"/>
</g>
<defs>
<clipPath id="clip0">
<rect width="24" height="27" fill="white"/>
</clipPath>
</defs>
</svg>
